<svg width="20" height="15" viewBox="0 0 20 15" fill="none" xmlns="http://www.w3.org/2000/svg">
<path d="M9.905 0C4.87147 0 0.683536 3.84171 0.0757814 8.76431C-0.0080053 9.44296 0.554327 10 1.23812 10C1.92192 10 2.46562 9.44169 2.57566 8.76681C3.15624 5.20603 6.21058 2.5 9.905 2.5C13.5994 2.5 16.6538 5.20603 17.2343 8.76681C17.3444 9.44169 17.8881 10 18.5719 10C19.2557 10 19.818 9.44296 19.7342 8.76431C19.1265 3.84171 14.9385 0 9.905 0ZM8.9305 5.95757C8.64271 5.5242 8.09482 5.31901 7.63397 5.56038C6.05097 6.38946 4.9525 8.06534 4.9525 10C4.9525 12.775 7.18112 15 9.905 15C12.6536 15 14.8575 12.775 14.8575 10C14.8575 8.06345 13.7752 6.4047 12.1791 5.56569C11.7168 5.32273 11.1666 5.5252 10.8778 5.9602C10.4158 6.65583 9.39246 6.6532 8.9305 5.95757Z" fill="#481075"/>
</svg>
