<svg width="21" height="15" viewBox="0 0 21 15" fill="none" xmlns="http://www.w3.org/2000/svg">
<path d="M10.5273 0C5.44957 0 1.22415 3.83561 0.605321 8.75259C0.519115 9.43754 1.08699 10 1.77734 10V10C2.4677 10 3.01643 9.43618 3.12963 8.75517C3.72057 5.20013 6.80155 2.5 10.5273 2.5C14.2531 2.5 17.3341 5.20013 17.9251 8.75517C18.0383 9.43618 18.587 10 19.2773 10V10C19.9677 10 20.5356 9.43754 20.4494 8.75259C19.8305 3.83561 15.6051 0 10.5273 0ZM9.54419 5.95861C9.2528 5.52398 8.70214 5.31819 8.23749 5.55884C6.63772 6.38739 5.52734 8.06415 5.52734 10C5.52734 12.775 7.77734 15 10.5273 15C13.3023 15 15.5273 12.775 15.5273 10C15.5273 8.06226 14.4333 6.40266 12.8202 5.56414C12.3542 5.32189 11.8012 5.52496 11.5087 5.96122V5.96122C11.0407 6.65932 10.0122 6.65671 9.54419 5.95861V5.95861Z" fill="white"/>
</svg>
