<svg width="25" height="26" viewBox="0 0 25 26" fill="none" xmlns="http://www.w3.org/2000/svg">
<path d="M15.4445 25.2807H10.3924V16.9983H9.32579C8.67463 16.9983 8.14697 16.4614 8.14697 15.7988V13.6283C8.14697 12.9657 8.67463 12.4288 9.32579 12.4288H10.3924V9.57278C10.3924 7.20804 12.2785 5.28882 14.6025 5.28882H17.6337C18.2849 5.28882 18.8126 5.82573 18.8126 6.48832V9.23008C18.8126 9.89267 18.2849 10.4296 17.6337 10.4296H15.4445V12.4288H17.5552C17.9144 12.4288 18.24 12.5887 18.4645 12.8629C18.6891 13.137 18.7789 13.5026 18.7115 13.8567L18.2849 16.0273C18.1726 16.5871 17.6899 16.9869 17.1285 16.9869H15.4445V25.2807ZM12.0764 23.5671H13.7604V15.2847H16.7244L16.9489 14.1423H13.7717V9.91549C13.7717 9.2529 14.2993 8.71599 14.9505 8.71599H17.1398V7.0024H14.6025C13.2103 7.0024 12.0764 8.15622 12.0764 9.57278V14.1423H9.83101V15.2847H12.0764V23.5671Z" fill="#65239A"/>
<path d="M15.7251 25.2806H8.98897C2.89274 25.2806 0.288086 22.6303 0.288086 16.4271V9.57277C0.288086 3.36959 2.89274 0.719238 8.98897 0.719238H15.7251C21.8214 0.719238 24.426 3.36959 24.426 9.57277V16.4271C24.426 22.6303 21.8214 25.2806 15.7251 25.2806ZM8.98897 2.43282C3.81335 2.43282 1.97213 4.30635 1.97213 9.57277V16.4271C1.97213 21.6935 3.81335 23.5671 8.98897 23.5671H15.7251C20.9008 23.5671 22.742 21.6935 22.742 16.4271V9.57277C22.742 4.30635 20.9008 2.43282 15.7251 2.43282H8.98897Z" fill="#65239A"/>
</svg>
