<svg width="25" height="26" viewBox="0 0 25 26" fill="none" xmlns="http://www.w3.org/2000/svg">
<path d="M24.5038 11.8578C24.4411 11.2315 23.9023 10.7649 23.2632 10.7649H13.802C13.1128 10.7649 12.5489 11.3175 12.5489 11.9929V14.0929C12.5489 14.7684 13.1128 15.321 13.802 15.321H19.4537C19.3158 16.4508 18.5639 18.1578 16.8973 19.2999C15.8321 20.0245 14.4161 20.528 12.5489 20.528C12.4612 20.528 12.386 20.528 12.2983 20.5157C9.1028 20.4175 6.39603 18.3175 5.41859 15.4315C5.15543 14.6578 5.00505 13.8473 5.00505 12.9999C5.00505 12.1526 5.15543 11.3298 5.40605 10.5684C5.48124 10.3473 5.56896 10.1263 5.66921 9.90522C6.8221 7.36311 9.3409 5.57012 12.2983 5.48415C12.3735 5.47187 12.4612 5.47187 12.5489 5.47187C14.3409 5.47187 15.6817 6.04905 16.6216 6.68765C17.1103 7.01923 17.7619 6.94554 18.188 6.54028L19.9299 4.87012C20.4812 4.34205 20.4311 3.44554 19.8045 3.00344C17.8121 1.56659 15.381 0.719238 12.5489 0.719238C12.4612 0.719238 12.386 0.719251 12.2983 0.731531C7.49879 0.817496 3.37598 3.54381 1.35843 7.48592C0.506301 9.15609 0.0175781 11.0227 0.0175781 12.9999C0.0175781 14.9771 0.506301 16.8438 1.35843 18.514H1.37096C3.38851 22.4561 7.51132 25.1824 12.2983 25.2684C12.386 25.2806 12.4612 25.2806 12.5489 25.2806C15.9324 25.2806 18.777 24.1877 20.8446 22.3087C23.2131 20.1596 24.579 17.0157 24.579 13.2701C24.579 12.742 24.5539 12.2877 24.5038 11.8578Z" fill="#BB86FC"/>
</svg>
