<svg width="25" height="26" viewBox="0 0 25 26" fill="none" xmlns="http://www.w3.org/2000/svg">
<path d="M24.5038 11.8579C24.4411 11.2316 23.9023 10.7649 23.2632 10.7649H13.802C13.1128 10.7649 12.5489 11.3175 12.5489 11.993V14.093C12.5489 14.7684 13.1128 15.3211 13.802 15.3211H19.4537C19.3158 16.4509 18.5639 18.1579 16.8973 19.3C15.8321 20.0246 14.4161 20.5281 12.5489 20.5281C12.4612 20.5281 12.386 20.5281 12.2983 20.5158C9.1028 20.4175 6.39603 18.3175 5.41859 15.4316C5.15543 14.6579 5.00505 13.8474 5.00505 13C5.00505 12.1526 5.15543 11.3298 5.40605 10.5684C5.48124 10.3474 5.56896 10.1263 5.66921 9.90528C6.8221 7.36317 9.3409 5.57018 12.2983 5.48421C12.3735 5.47193 12.4612 5.47193 12.5489 5.47193C14.3409 5.47193 15.6817 6.04911 16.6216 6.68771C17.1103 7.01929 17.7619 6.9456 18.188 6.54034L19.9299 4.87018C20.4812 4.34211 20.4311 3.4456 19.8045 3.0035C17.8121 1.56666 15.381 0.719299 12.5489 0.719299C12.4612 0.719299 12.386 0.719312 12.2983 0.731592C7.49879 0.817557 3.37598 3.54387 1.35843 7.48598C0.506301 9.15615 0.0175781 11.0228 0.0175781 13C0.0175781 14.9772 0.506301 16.8439 1.35843 18.514H1.37096C3.38851 22.4561 7.51132 25.1825 12.2983 25.2684C12.386 25.2807 12.4612 25.2807 12.5489 25.2807C15.9324 25.2807 18.777 24.1877 20.8446 22.3088C23.2131 20.1596 24.579 17.0158 24.579 13.2702C24.579 12.7421 24.5539 12.2877 24.5038 11.8579Z" fill="#65239A"/>
</svg>
