<svg width="100" height="100" viewBox="0 0 100 100" fill="none" xmlns="http://www.w3.org/2000/svg">
<rect width="100" height="100" rx="10" fill="#D9C0EA"/>
<circle cx="50" cy="50" r="38.5" stroke="#481075" stroke-width="3"/>
<path d="M67.4313 35.8133L52.4313 31.3133C52.2073 31.2461 51.9707 31.2322 51.7404 31.2726C51.5101 31.3131 51.2925 31.4068 51.1049 31.5464C50.9172 31.6859 50.7648 31.8674 50.6598 32.0763C50.5548 32.2852 50.5001 32.5158 50.5 32.7496V53.0483C48.9638 51.6743 47.0026 50.8692 44.9441 50.7675C42.8856 50.6658 40.8546 51.2737 39.1905 52.4896C37.5263 53.7054 36.3299 55.4557 35.8012 57.4477C35.2725 59.4397 35.4435 61.5528 36.2856 63.4339C37.1277 65.315 38.59 66.8501 40.4279 67.7826C42.2659 68.7151 44.3682 68.9886 46.3836 68.5572C48.399 68.1259 50.2052 67.0159 51.5005 65.4128C52.7958 63.8097 53.5016 61.8106 53.5 59.7496V43.7652L66.5688 47.6858C66.7927 47.7531 67.0293 47.767 67.2596 47.7265C67.4899 47.6861 67.7075 47.5923 67.8951 47.4528C68.0828 47.3133 68.2352 47.1318 68.3402 46.9229C68.4452 46.714 68.4999 46.4834 68.5 46.2496V37.2496C68.4999 36.9271 68.3959 36.6132 68.2034 36.3545C68.0109 36.0958 67.7401 35.906 67.4313 35.8133ZM44.5 65.7496C43.3133 65.7496 42.1533 65.3977 41.1666 64.7384C40.1799 64.0791 39.4109 63.142 38.9567 62.0457C38.5026 60.9493 38.3838 59.7429 38.6153 58.579C38.8468 57.4152 39.4182 56.3461 40.2574 55.5069C41.0965 54.6678 42.1656 54.0964 43.3295 53.8649C44.4933 53.6334 45.6997 53.7522 46.7961 54.2063C47.8925 54.6604 48.8295 55.4295 49.4888 56.4162C50.1481 57.4029 50.5 58.5629 50.5 59.7496C50.5 61.3409 49.8679 62.867 48.7426 63.9922C47.6174 65.1174 46.0913 65.7496 44.5 65.7496ZM65.5 44.234L53.5 40.634V34.7652L65.5 38.3746V44.234Z" fill="#481075"/>
</svg>
