<svg width="26" height="26" viewBox="0 0 26 26" fill="none" xmlns="http://www.w3.org/2000/svg">
<path d="M16.4271 25.2807H9.57277C3.36959 25.2807 0.719238 22.6304 0.719238 16.4272V9.57283C0.719238 3.36965 3.36959 0.719299 9.57277 0.719299H16.4271C22.6303 0.719299 25.2806 3.36965 25.2806 9.57283V16.4272C25.2806 22.6304 22.6303 25.2807 16.4271 25.2807ZM9.57277 2.43289C4.30635 2.43289 2.43282 4.30641 2.43282 9.57283V16.4272C2.43282 21.6936 4.30635 23.5671 9.57277 23.5671H16.4271C21.6935 23.5671 23.5671 21.6936 23.5671 16.4272V9.57283C23.5671 4.30641 21.6935 2.43289 16.4271 2.43289H9.57277Z" fill="#65239A"/>
<path d="M13.0002 17.8552C10.327 17.8552 8.14502 15.6732 8.14502 13C8.14502 10.3268 10.327 8.14484 13.0002 8.14484C15.6734 8.14484 17.8553 10.3268 17.8553 13C17.8553 15.6732 15.6734 17.8552 13.0002 17.8552ZM13.0002 9.85842C11.2637 9.85842 9.85861 11.2636 9.85861 13C9.85861 14.7364 11.2637 16.1416 13.0002 16.1416C14.7366 16.1416 16.1418 14.7364 16.1418 13C16.1418 11.2636 14.7366 9.85842 13.0002 9.85842Z" fill="#65239A"/>
<path d="M18.7117 7.85918C18.5632 7.85918 18.4147 7.82491 18.2776 7.76779C18.1405 7.71067 18.0149 7.6307 17.9006 7.52789C17.7978 7.41365 17.7064 7.28799 17.6493 7.1509C17.5922 7.01381 17.5693 6.8653 17.5693 6.71679C17.5693 6.56828 17.5922 6.41977 17.6493 6.28268C17.7178 6.13417 17.7978 6.01993 17.9006 5.90569C17.9577 5.86 18.0149 5.80288 18.072 5.76861C18.1405 5.72291 18.2091 5.68864 18.2776 5.66579C18.3462 5.63152 18.4147 5.60867 18.4947 5.59725C18.8602 5.51728 19.2486 5.64294 19.5228 5.90569C19.6256 6.01993 19.7056 6.13417 19.7627 6.28268C19.8198 6.41977 19.8541 6.56828 19.8541 6.71679C19.8541 6.8653 19.8198 7.01381 19.7627 7.1509C19.7056 7.28799 19.6256 7.41365 19.5228 7.52789C19.4086 7.6307 19.2829 7.71067 19.1458 7.76779C19.0087 7.82491 18.8602 7.85918 18.7117 7.85918Z" fill="#65239A"/>
</svg>
