<svg width="26" height="26" viewBox="0 0 26 26" fill="none" xmlns="http://www.w3.org/2000/svg">
<path d="M16.4271 25.2806H9.57277C3.36959 25.2806 0.719238 22.6303 0.719238 16.4271V9.57277C0.719238 3.36959 3.36959 0.719238 9.57277 0.719238H16.4271C22.6303 0.719238 25.2806 3.36959 25.2806 9.57277V16.4271C25.2806 22.6303 22.6303 25.2806 16.4271 25.2806ZM9.57277 2.43282C4.30635 2.43282 2.43282 4.30635 2.43282 9.57277V16.4271C2.43282 21.6935 4.30635 23.5671 9.57277 23.5671H16.4271C21.6935 23.5671 23.5671 21.6935 23.5671 16.4271V9.57277C23.5671 4.30635 21.6935 2.43282 16.4271 2.43282H9.57277Z" fill="#BB86FC"/>
<path d="M13.0002 17.8551C10.327 17.8551 8.14502 15.6731 8.14502 12.9999C8.14502 10.3267 10.327 8.14478 13.0002 8.14478C15.6734 8.14478 17.8553 10.3267 17.8553 12.9999C17.8553 15.6731 15.6734 17.8551 13.0002 17.8551ZM13.0002 9.85836C11.2637 9.85836 9.85861 11.2635 9.85861 12.9999C9.85861 14.7364 11.2637 16.1415 13.0002 16.1415C14.7366 16.1415 16.1418 14.7364 16.1418 12.9999C16.1418 11.2635 14.7366 9.85836 13.0002 9.85836Z" fill="#BB86FC"/>
<path d="M18.7117 7.85915C18.5632 7.85915 18.4147 7.82488 18.2776 7.76776C18.1405 7.71064 18.0149 7.63067 17.9006 7.52786C17.7978 7.41362 17.7064 7.28796 17.6493 7.15087C17.5922 7.01378 17.5693 6.86527 17.5693 6.71676C17.5693 6.56825 17.5922 6.41974 17.6493 6.28265C17.7178 6.13414 17.7978 6.0199 17.9006 5.90566C17.9577 5.85997 18.0149 5.80285 18.072 5.76858C18.1405 5.72288 18.2091 5.68861 18.2776 5.66576C18.3462 5.63149 18.4147 5.60864 18.4947 5.59722C18.8602 5.51725 19.2486 5.64291 19.5228 5.90566C19.6256 6.0199 19.7056 6.13414 19.7627 6.28265C19.8198 6.41974 19.8541 6.56825 19.8541 6.71676C19.8541 6.86527 19.8198 7.01378 19.7627 7.15087C19.7056 7.28796 19.6256 7.41362 19.5228 7.52786C19.4086 7.63067 19.2829 7.71064 19.1458 7.76776C19.0087 7.82488 18.8602 7.85915 18.7117 7.85915Z" fill="#BB86FC"/>
</svg>
