<svg width="24" height="24" viewBox="0 0 24 24" fill="none" xmlns="http://www.w3.org/2000/svg">
<path fill-rule="evenodd" clip-rule="evenodd" d="M11.535 3.518C11.6094 3.35402 11.6382 3.17299 11.6183 2.99401C11.5984 2.81504 11.5305 2.64476 11.4218 2.50116C11.3132 2.35757 11.1677 2.24598 11.0009 2.17818C10.8341 2.11039 10.652 2.0889 10.474 2.116C5.675 2.852 2 6.996 2 12C2 17.523 6.477 22 12 22C17.523 22 22 17.523 22 12C21.9999 11.9066 21.9986 11.8133 21.996 11.72C21.991 11.5397 21.9373 11.3641 21.8407 11.2118C21.7441 11.0595 21.608 10.9362 21.447 10.855C21.286 10.7737 21.106 10.7375 20.9261 10.7502C20.7462 10.7628 20.573 10.8239 20.425 10.927C19.3461 11.6784 18.0503 12.0546 16.7367 11.9977C15.4232 11.9409 14.1647 11.4542 13.1547 10.6125C12.1447 9.77078 11.4392 8.62061 11.1466 7.33884C10.8539 6.05706 10.9904 4.71465 11.535 3.518Z" fill="#481075"/>
</svg>
