<svg width="24" height="24" viewBox="0 0 24 24" fill="none" xmlns="http://www.w3.org/2000/svg">
<g clip-path="url(#clip0_195_18)">
<path d="M11.9999 19C12.2651 19 12.5194 19.1054 12.707 19.2929C12.8945 19.4804 12.9999 19.7348 12.9999 20V21C12.9999 21.2652 12.8945 21.5196 12.707 21.7071C12.5194 21.8946 12.2651 22 11.9999 22C11.7347 22 11.4803 21.8946 11.2928 21.7071C11.1052 21.5196 10.9999 21.2652 10.9999 21V20C10.9999 19.7348 11.1052 19.4804 11.2928 19.2929C11.4803 19.1054 11.7347 19 11.9999 19ZM18.3639 16.95L19.0709 17.657C19.253 17.8456 19.3538 18.0982 19.3515 18.3604C19.3493 18.6226 19.2441 18.8734 19.0587 19.0588C18.8733 19.2442 18.6225 19.3494 18.3603 19.3517C18.0981 19.354 17.8455 19.2532 17.6569 19.071L16.9499 18.364C16.7677 18.1754 16.6669 17.9228 16.6692 17.6606C16.6715 17.3984 16.7766 17.1476 16.962 16.9622C17.1475 16.7768 17.3983 16.6716 17.6605 16.6693C17.9227 16.667 18.1753 16.7678 18.3639 16.95ZM5.63587 16.95C5.81583 16.7707 6.0573 16.6665 6.31125 16.6588C6.5652 16.651 6.81258 16.7402 7.00315 16.9082C7.19371 17.0763 7.31317 17.3106 7.33727 17.5635C7.36136 17.8164 7.28828 18.069 7.13287 18.27L7.04987 18.364L6.34287 19.071C6.16291 19.2503 5.92143 19.3545 5.66748 19.3622C5.41354 19.37 5.16616 19.2808 4.97559 19.1128C4.78502 18.9447 4.66556 18.7104 4.64147 18.4575C4.61738 18.2046 4.69046 17.952 4.84587 17.751L4.92887 17.657L5.63587 16.95ZM11.9999 6C13.5912 6 15.1173 6.63214 16.2425 7.75736C17.3677 8.88258 17.9999 10.4087 17.9999 12C17.9999 13.5913 17.3677 15.1174 16.2425 16.2426C15.1173 17.3679 13.5912 18 11.9999 18C10.4086 18 8.88245 17.3679 7.75723 16.2426C6.63201 15.1174 5.99987 13.5913 5.99987 12C5.99987 10.4087 6.63201 8.88258 7.75723 7.75736C8.88245 6.63214 10.4086 6 11.9999 6ZM3.99987 11C4.25475 11.0003 4.4999 11.0979 4.68524 11.2728C4.87057 11.4478 4.9821 11.687 4.99704 11.9414C5.01198 12.1958 4.92919 12.4464 4.7656 12.6418C4.60201 12.8373 4.36996 12.9629 4.11687 12.993L3.99987 13H2.99987C2.74499 12.9997 2.49984 12.9021 2.3145 12.7272C2.12916 12.5522 2.01763 12.313 2.0027 12.0586C1.98776 11.8042 2.07054 11.5536 2.23413 11.3582C2.39772 11.1627 2.62977 11.0371 2.88287 11.007L2.99987 11H3.99987ZM20.9999 11C21.2651 11 21.5194 11.1054 21.707 11.2929C21.8945 11.4804 21.9999 11.7348 21.9999 12C21.9999 12.2652 21.8945 12.5196 21.707 12.7071C21.5194 12.8946 21.2651 13 20.9999 13H19.9999C19.7347 13 19.4803 12.8946 19.2928 12.7071C19.1052 12.5196 18.9999 12.2652 18.9999 12C18.9999 11.7348 19.1052 11.4804 19.2928 11.2929C19.4803 11.1054 19.7347 11 19.9999 11H20.9999ZM4.92887 4.929C5.10106 4.75682 5.33016 4.65339 5.57319 4.63811C5.81621 4.62283 6.05647 4.69675 6.24887 4.846L6.34287 4.929L7.04987 5.636C7.22922 5.81596 7.33334 6.05743 7.3411 6.31138C7.34885 6.56533 7.25965 6.81271 7.09162 7.00328C6.92359 7.19384 6.68932 7.31331 6.43639 7.3374C6.18347 7.36149 5.93086 7.28841 5.72987 7.133L5.63587 7.05L4.92887 6.343C4.7414 6.15547 4.63608 5.90116 4.63608 5.636C4.63608 5.37084 4.7414 5.11653 4.92887 4.929ZM19.0709 4.929C19.2583 5.11653 19.3637 5.37084 19.3637 5.636C19.3637 5.90116 19.2583 6.15547 19.0709 6.343L18.3639 7.05C18.2716 7.14551 18.1613 7.22169 18.0393 7.2741C17.9173 7.32651 17.786 7.3541 17.6533 7.35525C17.5205 7.3564 17.3888 7.3311 17.2659 7.28082C17.143 7.23054 17.0314 7.15629 16.9375 7.0624C16.8436 6.9685 16.7693 6.85685 16.719 6.73395C16.6688 6.61106 16.6435 6.47938 16.6446 6.3466C16.6458 6.21382 16.6734 6.0826 16.7258 5.9606C16.7782 5.83859 16.8544 5.72825 16.9499 5.636L17.6569 4.929C17.8444 4.74153 18.0987 4.63621 18.3639 4.63621C18.629 4.63621 18.8833 4.74153 19.0709 4.929ZM11.9999 2C12.2651 2 12.5194 2.10536 12.707 2.29289C12.8945 2.48043 12.9999 2.73478 12.9999 3V4C12.9999 4.26522 12.8945 4.51957 12.707 4.70711C12.5194 4.89464 12.2651 5 11.9999 5C11.7347 5 11.4803 4.89464 11.2928 4.70711C11.1052 4.51957 10.9999 4.26522 10.9999 4V3C10.9999 2.73478 11.1052 2.48043 11.2928 2.29289C11.4803 2.10536 11.7347 2 11.9999 2Z" fill="white"/>
</g>
<defs>
<clipPath id="clip0_195_18">
<rect width="24" height="24" fill="white"/>
</clipPath>
</defs>
</svg>
